<svg width="17" height="20" viewBox="0 0 17 20" fill="none" xmlns="http://www.w3.org/2000/svg">
<path d="M13.7542 11.9999C14.9962 11.9999 16.003 13.0068 16.003 14.2488V14.8242C16.003 15.7185 15.6835 16.5833 15.1019 17.2627C13.5326 19.0962 11.1454 20.0011 8 20.0011C4.85414 20.0011 2.46812 19.0959 0.90182 17.2617C0.322059 16.5828 0.00354004 15.7193 0.00354004 14.8265V14.2488C0.00354004 13.0068 1.0104 11.9999 2.25242 11.9999H13.7542ZM13.7542 13.4999H2.25242C1.83882 13.4999 1.50354 13.8352 1.50354 14.2488V14.8265C1.50354 15.3622 1.69465 15.8802 2.04251 16.2876C3.29582 17.7553 5.26169 18.5011 8 18.5011C10.7383 18.5011 12.7059 17.7553 13.9624 16.2873C14.3113 15.8797 14.503 15.3608 14.503 14.8242V14.2488C14.503 13.8352 14.1678 13.4999 13.7542 13.4999ZM8 0.00463867C10.7614 0.00463867 13 2.24321 13 5.00464C13 7.76606 10.7614 10.0046 8 10.0046C5.23857 10.0046 3 7.76606 3 5.00464C3 2.24321 5.23857 0.00463867 8 0.00463867ZM8 1.50464C6.067 1.50464 4.5 3.07164 4.5 5.00464C4.5 6.93764 6.067 8.50464 8 8.50464C9.93299 8.50464 11.5 6.93764 11.5 5.00464C11.5 3.07164 9.93299 1.50464 8 1.50464Z" fill="#919191"/>
</svg>
